<svg xmlns="http://www.w3.org/2000/svg" width="99" height="95" fill="#005">
  <path d="M99 23c0-4.9-2-9.8-5.6-13.1l-4.6-4.6A18 18 0 0076 0H18C8.3 0 0 8.3 0 18c0 4.3 1.6 8 4.4 11.2.5.6.7 1.5.4 2A26.6 26.6 0 002 42v34c0 3.8 2 7.2 4.9 9.8l4.8 4.9C14.4 93.4 18.2 95 22 95h60c7.9 0 15-6.1 15-14V47c0-3.6-1.3-7.4-2.7-10.6-.3-.7-.2-1.5.3-2A17 17 0 0099 23z"/>
  <path fill="#f2f2f2" d="M76 4H18C12.5 4 7.3 7 5 12c-2.3 5-1.4 10.7 2.2 14.8 1.5 1.7 1.9 4 1 6.1A22.9 22.9 0 006 42v34c0 5.8 5.2 10 11 10h60c5.8 0 11-4.2 11-10V41.5c0-3-1-6-2.3-8.6-1-2-.5-4.4 1-6.1C90.3 22.7 91.3 17 89 12s-7.5-8-13-8z"/>
  <path d="M29 13.3c-5.6.3-11 5-11 10.7v18c0 5.6 5.4 10.7 11 11 11.9.6 23.1.6 35 0 5.6-.3 10.5-5.4 10.7-11l.3-18c.2-5.6-5.3-10.7-11-11-9.8-.2-24.7-.2-35 .3z"/>
  <path fill="#6c7eff" d="M64.3 17c-11.8-.6-23.6-.6-35.4 0a7.1 7.1 0 00-6.6 7v18c0 3.6 3 6.9 6.6 7 11.8.7 23.6.7 35.4 0a7.3 7.3 0 006.6-7V24c0-3.7-3-6.8-6.6-7z"/>
  <path d="M37.4 24c-2.5 0-4.5 1.9-4.5 4.2h9c0-2.3-2-4.2-4.5-4.2zm18.4 0c-2.5 0-4.5 1.9-4.5 4.2h9c0-2.3-2-4.2-4.5-4.2zm-1.3 11.1a8.4 8.4 0 01-7.9 5.3 8.4 8.4 0 01-7.9-5.3l-.2-.7-4 1.6.3.7a12.7 12.6 0 0011.8 8 12.7 12.6 0 0011.8-8l.2-.7-3.9-1.6-.3.7z"/>
  <circle cx="62" cy="61" r="3"/>
  <circle cx="55" cy="68" r="3"/>
  <circle cx="69" cy="68" r="3"/>
  <circle cx="62" cy="75" r="3"/>
  <path d="M38 65h-4v-4c0-4-6-4-6 0v4h-4c-4 0-4 6 0 6h4v4c0 4 6 4 6 0v-4h4c4 0 4-6 0-6z"/>
</svg>
